PathFileType  4	(X/Y/Z) C:\Users\antoi\Documents\MyRepositories\mobilecap\ResultsAnalysis
DataRate	CameraRate	NumFrames	NumMarkers	Units	OrigDataRate	OrigDataStartFrame	OrigNumFrames
100.0	100.0	5	51	mm	100.0	81	128
Frame#	Time	r_knee			r_shank_antsup			r_ankle			r_calc			r_5meta			r_toe			L_knee			L_shank_antsup			L_ankle			L_calc			L_5meta			L_toe			r_sh2			r_sh3			r_sh4			L_sh2			L_sh3			r_thigh1			r_thigh2			r_thigh3			r_thigh4			r_thigh5			L_thigh1			L_thigh2			L_thigh3			L_thigh4			r.ASIS			r.PSIS			L.ASIS			L.PSIS			C7			R_Shoulder			L_Shoulder			R_Sternum			L_Sternum			R_humerus			R_elbow_med			R_elbow_lat			R_forearm			R_wrist_radius			R_wrist_ulna			L_humerus			L_elbow_med			L_elbow_lat			L_forearm			L_wrist_radius			L_wrist_ulna			R_HJC			L_HJC			R_HJC_reg			L_HJC_reg			
		X1	Y1	Z1	X2	Y2	Z2	X3	Y3	Z3	X4	Y4	Z4	X5	Y5	Z5	X6	Y6	Z6	X7	Y7	Z7	X8	Y8	Z8	X9	Y9	Z9	X10	Y10	Z10	X11	Y11	Z11	X12	Y12	Z12	X13	Y13	Z13	X14	Y14	Z14	X15	Y15	Z15	X16	Y16	Z16	X17	Y17	Z17	X18	Y18	Z18	X19	Y19	Z19	X20	Y20	Z20	X21	Y21	Z21	X22	Y22	Z22	X23	Y23	Z23	X24	Y24	Z24	X25	Y25	Z25	X26	Y26	Z26	X27	Y27	Z27	X28	Y28	Z28	X29	Y29	Z29	X30	Y30	Z30	X31	Y31	Z31	X32	Y32	Z32	X33	Y33	Z33	X34	Y34	Z34	X35	Y35	Z35	X36	Y36	Z36	X37	Y37	Z37	X38	Y38	Z38	X39	Y39	Z39	X40	Y40	Z40	X41	Y41	Z41	X42	Y42	Z42	X43	Y43	Z43	X44	Y44	Z44	X45	Y45	Z45	X46	Y46	Z46	X47	Y47	Z47	X48	Y48	Z48	X49	Y49	Z49	X50	Y50	Z50	X51	Y51	Z51	

81	0.80000000	1090.41965	526.92999	-79.54086	1114.45010	450.54725	-97.35416	925.93609	164.34117	-121.23397	852.39142	162.03487	-161.69862	998.73168	67.65193	-94.92370	1057.65273	84.10607	-144.36835	924.27321	489.92097	-388.54229	941.36426	387.95172	-392.63508	809.25000	102.26924	-371.32739	735.47381	66.37446	-328.60802	908.69347	41.94286	-410.47462	949.59622	63.09207	-352.75742	1050.31935	353.35300	-81.15201	1045.10060	488.91997	-70.85043	986.64920	392.76112	-75.89349	856.92852	417.65144	-401.12026	827.60044	298.49962	-405.34067	998.70168	832.60313	-61.68641	1050.14064	731.26639	-61.53827	1004.51547	686.36055	-39.16903	895.93614	780.40003	-54.53851	953.98823	677.47557	-58.79708	943.53004	758.35683	-436.74140	959.94718	623.44442	-412.64699	835.15482	747.93144	-399.53943	856.77506	610.78778	-382.85110	965.75246	975.27219	-113.14501	781.79355	995.77499	-199.65163	989.44818	956.65012	-362.35520	779.79826	1002.19155	-300.05978	794.22180	1414.78093	-339.96549	880.71929	1417.51358	-152.36189	878.24761	1328.70758	-497.82218	929.98681	1375.93837	-301.58564	936.28573	1365.53745	-344.75450	878.51428	1308.33965	-52.62295	814.20070	1094.89931	-28.02974	827.78838	1133.38109	35.62556	949.91930	1054.39975	50.24974	1043.67037	954.76061	61.49256	1025.68784	944.63740	90.78478	908.77872	1208.36549	-533.77680	916.02037	983.18357	-440.47676	934.21157	995.90410	-516.99806	1032.54708	934.92307	-500.64355	1129.03595	809.80680	-479.86728	1105.03080	793.80158	-500.94990	897.44512	888.98293	-136.23293	909.44398	881.64699	-342.21236	914.66424	879.10445	-151.70660	911.37881	889.66896	-317.02228	
82	0.81000000	1102.29038	529.16453	-78.90835	1129.08053	453.88636	-95.64379	959.19058	155.85639	-120.28163	886.70978	148.92981	-161.52345	1037.52320	63.68194	-92.61511	1096.14870	83.52376	-141.32219	926.65836	490.33984	-387.87746	942.60273	388.45205	-392.15320	809.60097	102.87618	-371.26678	735.70032	66.93969	-328.45699	908.71313	41.92023	-410.45743	949.73194	62.96978	-352.81375	1070.95677	353.17979	-79.63477	1056.95435	488.16792	-71.24363	1004.62634	388.65145	-76.34127	858.23432	418.44964	-400.51583	828.50651	299.49516	-404.84905	1010.21509	835.46230	-61.52777	1062.00034	734.17358	-61.30961	1016.90208	689.76923	-37.42074	907.87462	783.12522	-52.36378	965.95785	680.18108	-56.08126	951.35345	758.36103	-435.95377	965.05994	623.25220	-411.71350	842.65507	750.04017	-399.20200	861.58050	612.49693	-382.56645	977.10140	977.52046	-113.42773	793.27440	998.40865	-199.74908	1000.51532	956.97653	-362.18328	791.30372	1004.29124	-300.04478	805.81306	1416.32817	-339.31037	890.36102	1418.53037	-151.04573	891.25760	1332.19374	-496.95043	941.47321	1378.27579	-300.01324	947.80764	1368.03239	-343.17204	886.45402	1309.13731	-51.59847	820.81642	1095.93964	-29.06403	833.59856	1134.00652	35.00117	955.08760	1054.56763	51.46203	1048.27516	954.54552	63.81945	1029.87807	944.31178	92.70228	922.91692	1212.24431	-533.48166	930.03566	986.70245	-440.73026	949.02813	999.59160	-517.07694	1048.25747	940.35282	-499.24223	1147.13033	817.28822	-476.74780	1123.52817	800.69282	-497.91727	908.33243	891.44781	-135.64864	920.10248	882.61443	-341.58822	925.50283	881.25231	-151.40183	922.25759	890.93880	-316.55256	
83	0.82000000	1113.46390	530.67390	-78.22100	1143.12743	456.73464	-93.86460	992.84426	147.90869	-118.85387	921.71558	136.36545	-160.77618	1076.62868	60.63476	-89.92245	1134.54372	83.79473	-138.03826	929.29649	490.61374	-387.26152	944.05101	388.86657	-391.70070	809.96432	103.49516	-371.18075	735.96119	67.59026	-328.31341	908.73189	41.89173	-410.43303	949.90652	62.83849	-352.87087	1091.25416	352.80305	-77.88696	1068.41907	486.67672	-71.44601	1022.56705	384.09340	-76.48538	859.74495	419.20018	-399.97142	829.57973	300.50116	-404.35423	1021.55885	837.73827	-61.44315	1073.49831	736.43142	-61.02267	1029.04869	692.49239	-35.65876	919.58381	785.42305	-50.25838	977.53630	682.41250	-53.50223	959.16687	758.16036	-435.18858	970.30220	622.92188	-410.81220	850.15280	751.79493	-398.95957	866.53604	613.93885	-382.35665	988.47265	979.11741	-113.68519	804.74503	1000.67619	-199.78044	1011.57306	956.91297	-362.05309	802.78398	1006.09984	-299.98238	817.44826	1417.50284	-338.47056	900.20719	1419.10450	-149.60276	904.33698	1335.30672	-495.89707	953.03822	1380.16915	-298.33392	959.46166	1370.08512	-341.46756	894.60586	1309.49648	-50.47221	827.49163	1096.62260	-29.92601	839.49546	1134.29905	34.51943	960.34945	1054.47115	52.78397	1053.07178	954.15088	66.20802	1034.23526	943.76338	94.65351	937.30366	1215.81353	-533.02633	944.03415	989.74477	-441.11884	963.90112	1002.97429	-517.25411	1063.95433	945.49152	-497.83016	1165.12458	824.52977	-473.61567	1141.98164	807.36318	-494.95808	919.15177	893.36299	-135.14645	930.65096	883.24722	-341.04798	936.25134	882.88290	-151.14069	933.02174	891.81442	-316.15077	
84	0.83000000	1124.02890	531.43763	-77.51332	1156.69892	459.08614	-92.15349	1026.81927	140.64064	-116.94039	957.29847	124.49526	-159.46636	1115.90921	58.67614	-86.87437	1172.74022	85.11076	-134.53699	932.12580	490.75999	-386.68899	945.66429	389.19768	-391.27336	810.34554	104.11084	-371.07181	736.24013	68.29600	-328.17290	908.75613	41.86009	-410.40493	950.12960	62.71524	-352.92741	1111.31116	352.24337	-76.01378	1079.71468	484.45422	-71.30476	1040.63958	379.11915	-76.16461	861.43447	419.90689	-399.48201	830.79424	301.46637	-403.88816	1032.75251	839.36562	-61.38607	1084.64312	737.97194	-60.69543	1040.89712	694.41710	-33.97531	931.05433	787.23667	-48.27389	988.73788	684.16601	-51.13580	967.00326	757.77549	-434.43697	975.65714	622.45963	-409.92987	857.66702	753.22585	-398.84462	871.60807	615.17233	-382.19885	999.84179	980.02861	-113.88637	816.19982	1002.53984	-199.72467	1022.61466	956.46209	-361.95176	814.23172	1007.58189	-299.86177	829.14899	1418.29753	-337.44953	910.26353	1419.22477	-148.02386	917.46318	1338.00760	-494.66551	964.63430	1381.56847	-296.55100	971.23983	1371.68243	-339.64149	902.96629	1309.39625	-49.24908	834.26221	1096.91316	-30.61350	845.51510	1134.23328	34.18274	965.73909	1054.07070	54.20464	1058.08487	953.51866	68.65928	1038.78118	942.94600	96.64650	951.85113	1219.02327	-532.39658	958.02251	992.27831	-441.63199	978.86497	1006.02351	-517.50959	1079.64270	950.29328	-496.40716	1182.99116	831.45331	-470.48743	1160.37262	813.75857	-492.10662	929.89592	894.68991	-134.71698	941.09455	883.53509	-340.58526	946.90061	883.97338	-150.89650	943.65941	892.27669	-315.80041	
85	0.84000000	1134.08970	531.45404	-76.79994	1169.88163	460.94925	-90.61012	1061.02507	134.19861	-114.54294	993.32334	113.45966	-157.60368	1155.18994	57.96289	-83.50052	1210.61325	87.65111	-130.83155	935.07130	490.80973	-386.15459	947.38111	389.45512	-390.86556	810.74746	104.71061	-370.94894	736.52388	69.02355	-328.03394	908.79248	41.82942	-410.37850	950.40800	62.61808	-352.98398	1131.22322	351.56190	-74.09668	1091.05351	481.55796	-70.71626	1058.96238	373.82802	-75.27567	863.25565	420.57168	-399.03964	832.11149	302.35344	-403.48057	1043.80249	840.29398	-61.29849	1095.43802	738.74188	-60.35231	1052.34985	695.48349	-32.45773	942.27667	788.51325	-46.47777	999.57005	685.40240	-49.05407	974.89695	757.22714	-433.69778	981.10464	621.87466	-409.05221	865.23102	754.39441	-398.87393	876.76612	616.26473	-382.07296	1011.20509	980.26487	-114.00677	827.64453	1003.96960	-199.56760	1033.63743	955.63670	-361.86032	825.65057	1008.70575	-299.67473	840.93301	1418.71381	-336.25454	920.52837	1418.88878	-146.30330	930.62387	1340.27152	-493.26446	976.22912	1382.44400	-294.66612	983.12617	1372.82077	-337.69457	911.52737	1308.82996	-47.93791	841.17086	1096.78427	-31.12441	851.69423	1133.78949	33.99084	971.29578	1053.33563	55.70963	1063.33737	952.60471	71.17056	1043.54308	941.82742	98.68651	966.46617	1221.83142	-531.58271	971.99353	994.29252	-442.25629	993.95070	1008.72350	-517.82315	1095.32278	954.72169	-494.97508	1200.69522	837.98751	-467.38347	1178.67929	819.83288	-489.39461	940.58100	895.42329	-134.34063	951.45770	883.47277	-340.18315	957.47021	884.52313	-150.64401	954.18694	892.32193	-315.47868	
